<?xml version="1.0" encoding="UTF-8"?>
<svg id="Layer_1" data-name="Layer 1" xmlns="http://www.w3.org/2000/svg" viewBox="0 0 730.59 142.53">
  <defs>
    <style>
      .cls-1 {
        fill: #72bb74;
      }

      .cls-2 {
        fill: #66af6d;
      }

      .cls-3 {
        fill: #5ca565;
      }

      .cls-4 {
        fill: #59a353;
      }

      .cls-5 {
        fill: #84c983;
      }

      .cls-6 {
        fill: #6fb77b;
      }

      .cls-7 {
        fill: #59a55d;
      }

      .cls-8 {
        fill: #539d5a;
      }

      .cls-9 {
        fill: #fff;
      }

      .cls-10 {
        fill: #5fac66;
      }

      .cls-11 {
        fill: #6db66e;
      }

      .cls-12 {
        fill: #65af60;
      }

      .cls-13 {
        fill: #72b667;
      }

      .cls-14 {
        fill: #9dd98f;
      }

      .cls-15 {
        fill: #4a8e4c;
      }

      .cls-16 {
        fill: #66ad67;
      }

      .cls-17 {
        fill: #54a159;
      }
    </style>
  </defs>
  <g id="hqZXbN.tif">
    <g>
      <path class="cls-9" d="M621.81,116.03l-.17-7.41c-6.16,7.01-15.85,10.27-25.16,7.59-17.64-5.08-23.73-28.31-15.36-44.47,4.73-9.14,13.81-14.33,23.91-13.84,6.68.32,12.39,2.94,16.56,8.24l.27-7.21h13.73l.03,57.01-13.82.08h0ZM620.71,95.12c2.12-5.71,1.94-11.96-1.01-17.38s-8.74-8.22-15.09-7.53c-10.99,1.21-15.61,13.85-12.2,24.18,2.13,6.44,7.6,10.51,14.09,10.54,6.35.03,11.92-3.63,14.2-9.81h.01Z"/>
      <path class="cls-9" d="M422.97,116.03l-.14-7.38c-7.9,9.06-21.68,11.47-31.85,4.39-14.77-10.28-16.22-33.8-4.95-46.65,9.73-11.1,28.16-11.66,36.82-.07l.16-7.31,13.83.07v56.89l-13.87.07h0ZM422.1,94.61c1.94-5.75,1.63-11.7-1.19-16.87-3.05-5.58-8.74-8.24-15.12-7.52-11.16,1.25-15.67,14.29-12.04,24.54,2.27,6.41,7.87,10.3,14.4,10.16,6.27-.13,11.78-3.87,13.96-10.31h-.01Z"/>
      <path class="cls-9" d="M221.02,116.01l-.11-7.47c-6.46,7.34-16.72,10.61-26.29,7.34-16.83-5.75-22.3-27.92-14.62-43.57,4.66-9.51,13.96-14.97,24.35-14.42,6.68.35,12.36,3.06,16.48,8.29l.23-7.25,13.73.06v56.98l-13.78.03h.01ZM219.88,95.13c1.94-5.1,1.88-10.41.01-15.28-2.46-6.43-8.29-10.08-15.03-9.74-6.36.32-11.74,4.75-13.54,11.33-1.13,4.13-1.08,8.59.19,12.7,1.99,6.45,7.44,10.64,13.85,10.79,6.42.15,12.09-3.41,14.52-9.79h0Z"/>
      <path class="cls-9" d="M492.42,116.01l-.31-7.18c-6.68,7.08-16.37,10.19-25.75,7.19-17.14-5.49-23.02-28.34-14.66-44.36,4.77-9.13,13.84-14.26,23.93-13.75,6.69.33,12.43,3.01,16.57,8.34l.19-7.29,13.76.07v56.97l-13.72.02h-.01ZM490.96,95.78c2.46-5.88,2.34-12.45-.74-18.07s-8.99-8.31-15.47-7.44c-10.68,1.43-15.04,13.71-11.87,23.89,1.95,6.28,7.16,10.39,13.31,10.73,6.46.36,12.23-3.04,14.77-9.11h0Z"/>
      <path class="cls-9" d="M721.4,98.88l6.93,9.6c-9.17,7.92-21.33,10.56-32.75,7.35-12.12-3.41-20.1-13.69-20.63-26.18-.7-16.32,9.14-29.94,25.89-31.77,14.67-1.6,27.52,8.1,29.45,22.82.43,3.26.32,6.45.16,10.08l-41.83.05c1.29,8.16,7.83,13.18,15.55,13.79,6.39.6,12.03-.8,17.24-5.75h-.01ZM717.28,81.07c-1.5-8.57-9.06-12.23-16.23-10.9-6.11.76-10.93,4.86-12.04,11.04l28.28-.14h-.01Z"/>
      <path class="cls-9" d="M320.59,98.87l6.94,9.52c-8.85,7.91-21.26,10.67-32.75,7.44-11.91-3.34-19.85-13.31-20.58-25.5-.99-16.65,8.82-30.65,25.89-32.47,14.82-1.58,27.84,8.41,29.43,23.38.33,3.08.19,6.15.05,9.55l-41.66.02c.92,7.77,7.43,13.07,15.1,13.77,6.54.7,12.28-.68,17.58-5.72h0ZM316.2,81.18c-.66-8.35-8.67-12.44-16.64-10.94-5.78,1.09-10.47,5.07-11.31,10.96l27.95-.02Z"/>
      <path class="cls-9" d="M159.2,72.36v43.64h-13.89l-.03-43.53-8.75-.22-.02-11.97,8.71-.09c.1-3.59-.06-7.09.66-10.49,1.85-8.65,9.53-13.98,18.23-13.49,4.45.25,8.31,1.48,11.67,4.78l-4.21,10.13c-2.44-1.22-4.43-2.36-6.92-2.3-2.91.08-5.3,2.13-5.35,5.05l-.12,6.33,12.84.07v12.01l-12.83.08h0Z"/>
      <polygon class="cls-9" points="559.06 59.08 573.68 59.11 548.51 115.87 538 116.02 513.93 59.09 528.92 58.93 543.74 97.57 559.06 59.08"/>
      <polygon class="cls-9" points="360.96 115.96 347.2 116.01 347.18 71.93 336.02 71.78 335.97 59.02 347.17 58.83 347.22 44.66 360.96 44.67 360.97 58.88 373.47 59.03 373.44 71.78 360.97 71.89 360.96 115.96"/>
      <rect class="cls-9" x="650.65" y="36.24" width="13.92" height="79.76"/>
      <rect class="cls-9" x="249.82" y="36.24" width="13.87" height="79.76"/>
    </g>
  </g>
  <g>
    <path class="cls-4" d="M108.75,38.41c2.1,2.7,6.57,3.71,5.92,7.88-.25,1.61,5.13,9.62,1.04,10.63,4.94,1.88,4.26,10.43,4.89,9.69-1.14,1.34-4.82-.31-6.36.06-.64.15-.84,1.21-1.68,2.11-3.32-2.65-7.4-1.8-11.07-1.34-.83.1-1.68-.07-2.5-.15l-1.3-.12c.2-4.2-.88-8.9-4.69-12.15,2.26-3.1,5.78-1.05,9.09-2.03.99-.29-.7-2.73-.1-3.33,1.01-1.02,3.04-1.43,4.79-1.67,0-1.93-1.8-1.43-2.91-1.6-.64-2.76-2.84-3.55-5.53-3.36-2.37.16-5.16.42-5.58,3.23-1.03.06-2.05.24-3.07.4-1.9-1.04-5.15-3.43-3.61-5.34l11.8-5.8c1.88-.92,3.49,2.51,4.76,3.63,2.06,1.82,4.39.23,6.13-.73Z"/>
    <path class="cls-3" d="M76.64,23.54c-1.62,1.21-2.13,3.54-3.52,4.88-3.64,3.48-2.4,7.85-2.05,8.3.67.86,2.16.57,3.6,1.13-4.43,4.08-4.61,11.07.35,14.51l5.47-5.99c.91,5.19-8.43,10.77-5.83,12.29,4.92,2.87,9.23.74,12.11-2.5,1.39-1.56,4.17-2.48,5.99-3.03-1.17,1.45-2.31,3.6-4.25,4.64-3.92,2.1-12.69,6.22-9.47,11.31-2.14.17-4.36.53-6.95-.18.88-1.91,3.26-1.61,4.02-4.22-2.48-.51-4.21,1.03-6.15.21l-.15-1.44c.6-.16,1.66-.92,1.19-1.75-.57-.99-2.17-.38-2.95-.59-1.53-1.59-1.81-3.76-1.92-5.88-.27-5.11-2.47-9.87-3.77-15.57-2.54,1.32-.47,2.83-.76,4.38-1.64.94-3.06,1.71-3.57,3.18l-.82-.04c-1.51-3.04-2.21-6.43-2.08-9.81.59.74,1.65,2.11,2.85,1.54.73-.34,3.26.54,2.68-1.39-1.11-3.72-1.3-9.81,3.67-10.18,3.63-.27,7.77-.77,9.02-5.07,1.25-.15,2.52.25,3.28,1.28ZM72.01,59.68c0-.27-.22-.5-.5-.5s-.5.22-.5.5.22.5.5.5.5-.22.5-.5Z"/>
    <path class="cls-15" d="M78.96,23.54c11.13.02,22.87,5.98,29.79,14.87-1.74.96-4.07,2.55-6.13.73-1.27-1.12-2.88-4.55-4.76-3.63l-11.8,5.8c.21-.65-.71-1.84-1.21-2.71-1.42,1.88-3.27,2.15-5.3,2.01-1.82-.13-1.35-3.41-2.6-4.21-3.38-2.16-4.81-4.14-3.83-7.98,1.4-1.34,1.9-3.67,3.52-4.88h2.32Z"/>
    <path class="cls-12" d="M123.86,86.9c-.9.21-1.28.94-1.51,1.75-1.89.2-3.79.36-5.68.15-.08-1.46-1.38-2.35-1.79-3.65,4.07-2.93-9.3-8.83-10.05-8.06l-.06-1.09c-.09-1.05-1.42-2.42-.82-3.31.85-1.25,4.37.65,4.73-.35,1.4-3.87-7.48-.08-7.2-4.88,3.68-.46,7.75-1.31,11.07,1.34.85-.89,1.04-1.95,1.68-2.11,1.54-.37,5.21,1.27,6.36-.06-.63.74.04-7.82-4.89-9.69,4.09-1.01-1.29-9.01-1.04-10.63.91.43,2.13.99,2.51,2.35l5.65,20.26c.8,2.86,1.64,6.1,1.47,9.47l-.43,8.54Z"/>
    <path class="cls-1" d="M60.07,95.95c.6,2.33,1.81,5.57-.3,7.28-1.71,0-3.46-.89-5.58-.28-.54,3.68,1.88,6.91.51,10.3-.42,1.04-2.37,1.63-1.92,2.95.87,2.52,5.55,1.54,5.89,2.48.43,1.21.18,2.6.5,3.3-.16.59-.37,1.16-.64,1.71l-12.29-8.01c-5.04-3.28-9.85-6.75-11.08-12.67,1.63-.24,3.95.4,5.73-.71,1.57-.98.85-3.77,1.45-5.16,2.23.63,4.88.78,7.13.71.38.32,1.18.4,1.61.52.46.57.8,1.36,1.2,1.74.74.7,2.47,1.29,3.07-.32.42-1.11-1.68-2.76-1.06-4.02,1.47-2.18,4.11-.34,5.78.19Z"/>
    <path class="cls-5" d="M76.05,82.9l7.05,9.76c.14.19.49.17.7.3-.08,1.13.24,2.26,1.1,3.03l-.13,1.75c-.63-.03-1.3.27-1.92.18-.55-.08-1.32-.25-1.84-.39-.28-.17-.49-.83-.97-.82-.13-1.29.25-2.65-.53-3.61l-9.05.74c-.84-.72.67-1.18.77-1.95,1.04-2.01,3.66-1.6,5.27-1.38,1.45-3.72-2.71-5.92-5.31-7.63-2.06-1.36-3.42-5.41-6.73-4.17-1.16.43-1.71,2.59-2.54,3.27-.19.16,0,.63-.17.81-.33.07-.77.16-1.15.04-.42-.13-.54-.59-.43-1.01.96-1.58,1.83-3.24,2.94-4.73.98-1.31,1.59-2.78,2.04-4.36,5.69.76,4,9.38,10.91,10.19Z"/>
    <path class="cls-5" d="M50.18,50.25l3.75.14c-1.61,2.07-3.63,3.73-4.12,6.36,2.99,2.7,5.82,5.11,9.48,4.58.69.97,1.67,1.68,2.82,2,.72.85,1.46,1.69,2.04,2.64-.6.2-1.61.4-1.83.91-.93,2.15,2,3.56,1.92,5.94-.06.69-1.1.97-1.34,1.4-.53-.02-1.06-.06-1.59-.14-.36-.13-.84-.09-1.64-.06-1.85.08.75-1.28,1.32-2.41-1.02-1.8-3.74-1.39-5.91-2.45l4.33-2.37c-20.67-7.39-14.49-1.67-17.89-1.13-9.79,1.56-3.33-1.06-11.65-3.99-.06-1.05.03-1.56-.17-1.94-.38-.72-1.63-.9-2.25-.74-.38-.72.25-1.92-.15-2.57.95-.3,1.17-1.33,1.17-2.22.25-.05.54.01.79-.06,3.3-.95,6.59-2.67,9.55.6.92,1.02,1.65,2.58,2.95,2.44.79-.09,2.96,0,3.1-1.08.13-1-1.8-2.1-2.56-1.9,1.15-4.94,1.6.92,7.86-3.94Z"/>
    <path class="cls-13" d="M119.41,99.65c.4-.05.82.22,1.22.22,0,.87-4.61,15.19-7.94,19.8-3.37,3.22-1.24-5.25-11.25-.19,3.9,5.44,1.21,6.41,6.29,8.07-1.95,2.24-3,6.96-3.99,9.97-.39,1.35-.59,1.05-1.44.57-.22-1.94.11-4.93-1.33-6.55.91-11.96-3.75-7.58-7.04-13.72.78-.97.49-1.97.18-3.06.62.26,1.46-.03,2.16-.07.99-.05,1.48-.93,1.47-1.9,0-.74-.19-2.64.9-2.8s2.12.59,3.09.12c.54-.27.8-1.18.92-1.96.37.06.78-.28,1.16-.29l.84-.1c1.74,3.1,4.92,5.34,9.08,6.11,1.38-3.52,5.64-10.59,3.05-12.47-.49-.36-1.4-.24-2.1-.19,1.04-1.57,3-1.36,4.74-1.55Z"/>
    <path class="cls-11" d="M41.53,65.65c.59.7.75,1.43.66,2.08-.42,3.07-6.46,1.16-5.85,4.49-.52.6-1.39,1.23-1.63,1.86-.41,1.09-.51,2.85.86,3.26.78.24,1.47.17,1.87.38.79.42,1.36,1.34,1.03,2.16-2.57.4-4.61-1.88-7.17-2.47l-4.77,2.71c-.12-1.22-2.03-3.23-3.13-3.07-.15-.6,0-1.36,0-1.98,2.46.13,4.34-10.09,4.17-11.34-.24-1.79-1.84-3.39-.11-4.73.62-.16,1.86.02,2.25.74.2.38.11.89.17,1.94,8.32,2.93,1.86,5.55,11.65,3.99ZM32.32,73.57c0-.27-.22-.5-.5-.5s-.5.22-.5.5.22.5.5.5.5-.22.5-.5Z"/>
    <path class="cls-2" d="M73.35,22.25c-1.25,4.31-5.39,4.8-9.02,5.07-4.97.37-4.77,6.46-3.67,10.18.57,1.93-1.95,1.05-2.68,1.39-1.2.56-2.26-.8-2.85-1.54.15-3.84-.8-8.18,2.18-11.01.21.8.74.88,1.33.92,2.51.19,1.31-4.44,3.51-5.2,1.16,1.37,2.81,4.28,4.4,3.1,1.41-1.05-.02-3.99.76-5.79.64-1.47,2.66-1.27,3.99-.77,1.23.47,2.05,2.1,2.05,3.64Z"/>
    <path class="cls-1" d="M37.17,37.36c-.9,1.77-1.15,3.76-1.18,5.73-1.09-.48-2.81-.91-4.08-2.01-1.9,5.28,1.64,6.92,4.82,9.69,1.42,1.24,4.18,3.81,5.6,3.42.75-.21,2.69.9,2.56,1.9-.14,1.09-2.32.99-3.1,1.08-1.3.14-2.03-1.42-2.95-2.44-2.96-3.28-6.25-1.55-9.55-.6-.62-3.38-1.04-6.83-1.28-10.54,1.73-2.05,1.39-4.47.18-6.37-.39-1.25-.67-2.53-.82-3.83,2.88,2.3,6.63,2.21,9.81,3.97Z"/>
    <path class="cls-1" d="M78.96,23.54h-2.32c-.76-1.04-2.03-1.44-3.28-1.29,0-1.55-.82-3.17-2.05-3.64-1.33-.51-3.35-.71-3.99.77-.78,1.8.65,4.74-.76,5.79-1.58,1.18-3.23-1.73-4.4-3.1-2.2.76-1,5.39-3.51,5.2-.59-.05-1.12-.12-1.33-.92-1.35-4.93,4.54-7.89,8.18-13.02,11.18,5.82,5.35,4.09,13.46,10.22Z"/>
    <path class="cls-16" d="M91.85,130.43c1.19,3.28,4.32,2.42,4.06,6.36-3.82-.37-7.5.25-11.01-1.21-1.65-10.17-3.64-4.78-4.86-9.82,1.16-.46,2.26-1.06,3.25-1.82,3.02,1.96,4.85,5.89,8.55,6.48Z"/>
    <path class="cls-6" d="M35.99,43.09c.85,1.61,8.76,6.9,11.22,6.17.94-.28,2.65-.03,2.98.99-6.25,4.86-6.7-.99-7.86,3.94-1.42.39-4.18-2.18-5.6-3.42-3.18-2.78-6.72-4.41-4.82-9.69,1.27,1.1,2.99,1.53,4.08,2.01Z"/>
    <path class="cls-2" d="M28.17,37.22c1.22,1.9,1.55,4.32-.18,6.37.24,3.71.66,7.16,1.28,10.54-.25.07-.54,0-.79.06-.57-.82-1.54-.56-2.2.03-.32-.92-.76-1.93-.67-2.97-.12,1.33-.26-8.5-1.45-9.13-.73-.39-2.11-1.32-2.72-.03-.3-2.38-3.59-5.57-.95-7.7.27.98-.38,2.09.31,2.81,2.76-1.46,5.1,0,7.36.01Z"/>
    <path class="cls-1" d="M58.04,47.2c.9,1.48,1.46,3.17,1.23,4.92-1.25.51-2.32,1.95-1.48,3.57,1.01,1.95,1.65,3.76,1.49,5.64-3.66.52-6.49-1.89-9.48-4.58.49-2.63,2.52-4.3,4.12-6.36.9-1.16,2.6-1.79,3.29-3.22l.82.04Z"/>
    <path class="cls-11" d="M80.05,125.77c1.23,5.04,3.21-.35,4.86,9.82-2.5-1.04-6.1-.61-8.5-2.13-1.67-1.06-3.78-2.12-4.53-3.76.75-2.66,4.19-.78,6.24-4.17.64.12,1.28.25,1.92.24Z"/>
    <path class="cls-1" d="M112.69,119.67c-1.99,2.76-1.41,6.55-4.96,7.89-5.07-1.66-2.39-2.64-6.29-8.07,10.01-5.07,7.88,3.41,11.25.19Z"/>
    <path class="cls-8" d="M26.28,54.22c.27.79.6,1.48,1.03,2.19.39.66-.23,1.85.15,2.57-1.73,1.34-.14,2.95.11,4.73.17,1.25-1.72,11.47-4.17,11.34.04-4.27-.35-8.76,1.01-12.9,2.02-6.16-1.11-11.53,1.22-10.91-.09,1.05.35,2.05.67,2.97Z"/>
    <path class="cls-2" d="M47.2,49.26c-2.46.73-10.37-4.56-11.22-6.17.03-1.97.28-3.96,1.18-5.73,4.5,2.49,6.11,8.43,10.03,11.9Z"/>
    <path class="cls-7" d="M25.62,51.25c-2.33-.62.8,4.76-1.22,10.91-1.61-.35-.75-2.4-.95-3.95l-2-16.12c.61-1.29,1.99-.36,2.72.03,1.19.63,1.33,10.46,1.45,9.13Z"/>
    <path class="cls-3" d="M97.96,131.43c.96,1.85,1.74,3.83,1.78,5.94-1.35.17-2.55-.44-3.83-.57.26-3.94-2.87-3.08-4.06-6.36l-.02-5.63c6.13.36,1.54,4.29,6.12,6.62Z"/>
    <path class="cls-5" d="M65.11,123.79c.06,1.31,1.13,2.9,1.4,3.97.44,1.72,2.23,1.79,3.64,1.73.57-.03,1.16.21,1.73.22.74,1.64,2.86,2.7,4.53,3.76-3.31.92-16-7.46-17.89-9.78.27-.55.48-1.12.64-1.71,1.73.12,1.78,2.38,2.64,2.63,1.22.36,2.47-.7,3.3-.81Z"/>
    <path class="cls-13" d="M35.49,95.76c.9.2,1.81.34,2.72.38-.13,2.62-1.48,4.82-3.06,6.87-.71.11-1.77.66-2.37.62.06,0-3.28-7.34-2.45-8.71h1.11c.29.83.83,1.69,1.63,1.88,1,.23,1.8-.39,2.42-1.02Z"/>
    <path class="cls-5" d="M27.36,33.39c.15,1.3.43,2.58.82,3.83-2.26-.02-4.61-1.47-7.36-.01-.69-.72-.04-1.84-.31-2.81.08-.68-.14-1.71.16-2.22,1.35-2.27,8.2,2.43,6.69,1.22Z"/>
    <path class="cls-15" d="M100.97,131.54c1.44,1.62,1.12,4.61,1.33,6.55-.73-.27-1.77-.84-2.56-.73-.04-2.1-.83-4.08-1.78-5.94.27-2.7-1.93-4.61-1.99-7.96,2.61,2.51,2.84,5.65,5,8.07Z"/>
    <path class="cls-5" d="M26.52,80.12c.21,2.13-.43,4.65,1.91,5.84-.03,2.62.95,5.21,2.93,6.95l.08,2.01h-1.11c-3.76-5.16-5.43-11.66-6.95-17.86,1.11-.16,3.01,1.85,3.13,3.07Z"/>
    <path class="cls-5" d="M120.63,99.87c-.41,0-.82-.26-1.22-.22l.08-4.75c1.64-1.68,2.23-4.04,2.86-6.25.23-.81.61-1.54,1.51-1.75-.42,8.26-3.21,7.08-3.23,12.97Z"/>
    <path class="cls-8" d="M73.11,28.41c-.98,3.84.45,5.82,3.83,7.98,1.25.8.78,4.08,2.6,4.21,2.04.15,3.89-.12,5.3-2.01.5.87,1.43,2.06,1.21,2.71-1.54,1.91,1.71,4.3,3.61,5.34-1.16,3.49-5.35-1.11-8.67,5.89,2.58.43,4.03,2.16,5.77,3.61-2.88,3.24-7.19,5.37-12.11,2.5-2.6-1.52,6.74-7.09,5.83-12.29l-5.47,5.99c-4.96-3.45-4.78-10.43-.35-14.51-1.45-.56-2.93-.27-3.6-1.13-.35-.45-1.59-4.82,2.05-8.3Z"/>
    <path class="cls-17" d="M97.67,67.17c-2.05,1.16-4.5,1.02-6.81.93-1.44-.05-2.87-.16-3.97.9-.51.34-1.49.14-2.08.4-1.89-.5-3.83-.5-5.77-.35-3.22-5.08,5.55-9.2,9.47-11.31,1.94-1.04,3.08-3.18,4.25-4.64,3.4-4.23,4.68-2.32,7.81-5.52.71-.73,3.57.62,3.27-1.22,1.11.18,2.9-.32,2.91,1.6-1.75.24-3.79.64-4.79,1.67-.59.6,1.09,3.04.1,3.33-3.3.98-6.82-1.07-9.09,2.03,3.81,3.26,4.89,7.95,4.69,12.15Z"/>
    <path class="cls-10" d="M98.97,67.29l-.28,1.65c-2.1.04-5.42.76-5.87,2.92-.47.08-1.44.24-1.85.04-.55-.35-.72.07-1.2.21-1.08.31-2.89-.13-3.49.69-.47.64-.32,3.13.38,2.93,8.14-2.27,3.24,3.97,18.1.25l.06,1.09c-.98,2.14-4.09,2.49-3.84,4.91-1.76-.3-3.31-.96-5.16-1.02-10.74-.32-11.82-3.39-15.71-2.91-.18-1.87-1.51-4.75.45-6.39,1.31-1.1,3.91-.44,4.26-2.26.58-.26,1.57-.06,2.08-.4-.12,1.48,1.45,1.03,2.48,1.15,1.38.17,1.76-.74,1.49-2.06,2.31.08,4.76.23,6.81-.93l1.3.12Z"/>
    <path class="cls-11" d="M101.48,67.44c-.28,4.81,8.6,1.01,7.2,4.88-.36,1-3.88-.9-4.73.35-.6.89.73,2.26.82,3.31-14.86,3.72-9.96-2.52-18.1-.25-.7.2-.85-2.29-.38-2.93.6-.83,2.41-.38,3.49-.69l1.2-.21c.41.2,1.39.04,1.85-.04,2.54-.43,5.05.22,8.19.97.95-1.46-.86-3.91-2.32-3.89l.28-1.65c.82.08,1.67.25,2.5.15Z"/>
    <path class="cls-15" d="M92.74,46.25c2.72-.17,5.17,1.16,7.84,1.35-3.13,3.2-4.41,1.3-7.81,5.52-1.82.54-4.6,1.46-5.99,3.03-1.74-1.45-3.19-3.18-5.77-3.61,3.31-7,7.51-2.4,8.67-5.89,1.02-.16,2.04-.34,3.07-.4Z"/>
    <path class="cls-8" d="M103.85,46.38c.29,1.84-2.56.49-3.27,1.22-2.67-.19-5.12-1.52-7.84-1.35.42-2.82,3.2-3.07,5.58-3.23,2.7-.18,4.89.61,5.53,3.36Z"/>
    <path class="cls-1" d="M79.04,69.07c1.94-.16,3.88-.15,5.77.35-.34,1.83-2.94,1.16-4.26,2.26-1.96,1.64-.63,4.52-.45,6.39-1.64.2-3.32-.02-4.96-.15-3.57-3.27-6.3-7.86-7.06-12.68.55-.03,1.37-.53,1.88-.35,1.94.82,3.66-.72,6.15-.21-.75,2.61-3.13,2.31-4.02,4.22,2.59.71,4.81.35,6.95.18Z"/>
    <path class="cls-2" d="M66.14,55.22c-.58.28-1.05.72-1.38,1.27-2.77-.94-2.55-4.46-5.48-4.36.23-1.74-.33-3.43-1.23-4.92.51-1.48,1.92-2.24,3.57-3.18.29-1.55-1.78-3.05.76-4.38,1.3,5.7,3.51,10.46,3.77,15.57Z"/>
    <path class="cls-5" d="M68.06,61.09c.35.37-.09,1.56.55,2.02.31.23.75.39,1.21.32l.15,1.44c-.5-.17-1.32.33-1.88.35-.71.03-1.45-.05-2.15.07-.2-1.12-.44-2.26-1.03-3.25l-.16-5.56c.33-.55.8-.99,1.38-1.27.11,2.12.4,4.29,1.92,5.88Z"/>
    <path class="cls-1" d="M69.82,63.44c-.46.07-.9-.09-1.21-.32-.64-.46-.2-1.66-.55-2.02.78.21,2.38-.41,2.95.59.48.83-.59,1.59-1.19,1.75Z"/>
    <circle class="cls-1" cx="71.51" cy="59.68" r=".5"/>
    <path class="cls-11" d="M114.87,85.14c.41,1.31,1.72,2.19,1.79,3.65-1.24,1.01-2.09,2.46-1.64,4.06-4.65,1.12-4.72-7.14-8.78-3.07-.85.85-1.56,1.95-1.83,3.2-.52-.19-1.08-.13-1.63-.07-3.19-5.67-10.2.15-8.78-5.66.25.08.67-.04.93-.09.47-.1.78-.56.9-.99.29.13.71-.16,1.03-.1.04,2.02,13.55-.3,13.85-1.07l4.15.13Z"/>
    <path class="cls-7" d="M114.87,85.14l-4.15-.13c-2.49-2.56-6.42-2.46-9.74-3.02-.26-2.43,2.86-2.77,3.84-4.91.75-.77,14.13,5.13,10.05,8.06Z"/>
    <path class="cls-1" d="M122.35,88.65c-.63,2.21-1.23,4.57-2.86,6.25-1.61,0-3.18-.38-4.61-1.11-.02-.29.24-.66.16-.93-.45-1.6.4-3.05,1.64-4.06,1.89.21,3.79.06,5.68-.15Z"/>
    <path class="cls-11" d="M71.23,91.89c-.1.77-1.61,1.23-.77,1.95l9.05-.74c.78.95.4,2.32.53,3.61-1.4.3-1.14,2.18-1.47,3.28-1.74-.3-3.78-1.35-5.6-.34.24,3.22.08,5.55-1.91,7.51-1.45,1.43-3.68,1.87-6.41,1.07-.6,1.98-.74,3.45-1.72,4.53-.87-1.89-.16-3.36.32-5.77.69-.12,2.89.39,2.84-1.21-.05-1.49-2.37-.97-3.19-.95-1.22.03-2.67-.24-3.13-1.59,2.11-1.71.9-4.95.3-7.28,2.03.64,2.09,3.06,4.01,3.82.07,9.03,6.3-10.39,5.42-9.82.35-.22,1.12-.12,1.31.51l.42,1.43Z"/>
    <path class="cls-2" d="M59.77,103.23c.46,1.35,1.9,1.63,3.13,1.59l.35,2.15c-.48,2.41-1.19,3.88-.32,5.77s.54,3.95,2.64,5.81c1.6,1.42-.5,3.94-.45,5.24-.83.12-2.08,1.17-3.3.81-.86-.25-.91-2.52-2.64-2.63-.31-.7-.07-2.08-.5-3.3-.33-.94-5.02.04-5.89-2.48-.45-1.31,1.5-1.91,1.92-2.95,1.37-3.39-1.05-6.62-.51-10.3,2.12-.61,3.87.28,5.58.28Z"/>
    <path class="cls-2" d="M61.31,74.08c.53.08,1.06.12,1.59.14-.2.87.15,1.97.2,2.86-1.1,1.49-1.97,3.16-2.94,4.73-4.63,1.48-3.34,2.88-3.97,7.22-.65.22-1.28.52-1.83.93-.77-2.77-2.23-5.1-5.17-5.03-1.56.04-3.35-.53-5.06.13.2-.33,1.1-1.2.67-1.78-.94-1.27-2.23-1.91-2.47-3.25.47-.86,1.46-1.72,1.61-2.64s-4.94-5.53-5.9-5.51c15.39-2.96,6.84-1.63,20.12.33-.9,3.17-3.75,2.93-5,6.02,3.05-1.68,6.53-1.86,8.15-4.15ZM48.41,78.25c-.96,1.24.37,2.08,1.23,1.81.4-.13,1.15.29,1.52-.54.31-.72-.14-1.51-.55-1.47-.67.07-1.79-.33-2.2.2Z"/>
    <path class="cls-2" d="M62.23,86.01c-.09,2.76,2.58,1.5,4.74,2.29,2.33.85-2.22,12.24-2.9,11.47-1.92-.76-1.98-3.18-4.01-3.82-1.66-.53-4.31-2.38-5.78-.19-.61,1.25,1.48,2.91,1.06,4.02-.6,1.6-2.33,1.02-3.07.32-.4-.38-.75-1.17-1.2-1.74,1.68-5.35,4.45-4.7,5.12-9.33.69.26,2.02.29,2.45-.44.25-.41-.32-1.53.14-2.04.94-1.05,2.49-.36,3.45-.54Z"/>
    <path class="cls-16" d="M54.37,89.95c-1.51,2.79-2.33,5.9-4.9,7.88-2.25.07-4.9-.08-7.13-.71-1.06-.3-2-1.22-3.21-1.14,2.86-8.45,6.57-1.28,10.08-11.06,2.94-.08,4.39,2.26,5.17,5.03Z"/>
    <path class="cls-14" d="M42.34,97.12c-.6,1.39.13,4.18-1.45,5.16-1.78,1.11-4.11.47-5.73.71,1.58-2.04,2.93-4.24,3.06-6.87.3.01.61-.12.91-.14,1.21-.08,2.15.83,3.21,1.14Z"/>
    <path class="cls-6" d="M60.17,81.81c-.12.42,0,.87.43,1.01.37.12.81.03,1.15-.04-1.06,1.13.53,2.29.5,3.24-.95.17-2.51-.51-3.45.54-.46.51.11,1.63-.14,2.04-.43.72-1.76.7-2.45.44.63-4.33-.66-5.74,3.97-7.22Z"/>
    <path class="cls-6" d="M51.08,98.35c-.43-.12-1.22-.2-1.61-.52,2.57-1.98,3.38-5.1,4.9-7.88.55-.41,1.18-.7,1.83-.93-.67,4.63-3.44,3.98-5.12,9.33Z"/>
    <path class="cls-6" d="M61.31,74.08c-1.62,2.3-5.1,2.48-8.15,4.15,1.25-3.09,4.1-2.84,5-6.02-13.28-1.96-4.73-3.29-20.12-.33l-1.71.33c-.6-3.32,5.44-1.42,5.85-4.49.09-.64-.07-1.38-.66-2.08,3.4-.54-2.79-6.27,17.89,1.13l-4.33,2.37c2.17,1.06,4.89.65,5.91,2.45-.57,1.14-3.17,2.49-1.32,2.41.8-.03,1.29-.08,1.64.06Z"/>
    <path class="cls-14" d="M68.09,65.23c.76,4.82,3.48,9.42,7.06,12.68.39.39.8,1.45.93,1.99.23.95-.15,2.03-.03,2.99-6.91-.8-5.22-9.42-10.91-10.19-.32-.04-.61-.06-.91.1.08-2.38-2.85-3.79-1.92-5.94.22-.51,1.22-.71,1.83-.91s1.18-.57,1.8-.67c.7-.12,1.44-.03,2.15-.07Z"/>
    <path class="cls-11" d="M64.75,56.49l.16,5.56c-1.13-.18-2.32.18-2.81,1.28-1.15-.32-2.13-1.02-2.82-2,.15-1.88-.48-3.69-1.49-5.64-.84-1.62.23-3.06,1.48-3.57,2.94-.1,2.72,3.42,5.48,4.36Z"/>
    <path class="cls-1" d="M64.92,62.05c.59.99.83,2.12,1.03,3.25-.62.1-1.2.48-1.8.67-.58-.95-1.32-1.79-2.04-2.64.49-1.1,1.67-1.47,2.81-1.28Z"/>
    <path class="cls-7" d="M28.49,54.19c0,.89-.22,1.93-1.17,2.22-.43-.71-.75-1.4-1.03-2.19.67-.59,1.63-.84,2.2-.03Z"/>
    <path class="cls-6" d="M63.1,77.08c-.05-.89-.4-1.99-.2-2.86.24-.44,1.28-.72,1.34-1.4.29-.16.59-.15.91-.1-.46,1.59-1.07,3.05-2.04,4.36Z"/>
    <path class="cls-7" d="M102.79,92.93c.54-.06,1.11-.13,1.63.07l2.06,3.48c2.94,1.47,6.54-.48,8.4-2.69,1.43.73,3.01,1.1,4.61,1.11l-.08,4.75c-1.73.19-3.7-.02-4.74,1.55-.5.76-1.43,1.54-2.15,1.83-2.49,1-7.95-5.29-9.02-2.37,1.03,1.55,3.36,1.5,3.29,3.31-.06,1.7-1.73,2.61-2.15,3.78l-.84.1c-.27-.99-.96-1.74-1.64-1.96-1.46-.47-3.21.15-2.55,1.74-.89-.15-1.83.14-2.73.16-1.42-1.2-3.36-.97-5.12-.84-.48-.24-.46-.97-.79-1.28.7-2.2-1.01-4.84.3-7.35,4.1-2.17,7.52,2.08,12.05.86-3.94-2.78-9.11-1.68-10.38-6.06,9.05-2.24,6.75,2.57,9.84-.19Z"/>
    <path class="cls-3" d="M114.67,101.21c.69-.05,1.61-.17,2.1.19,2.59,1.88-1.66,8.95-3.05,12.47-4.15-.77-7.34-3.01-9.08-6.11.43-1.17,2.09-2.08,2.15-3.78.07-1.81-2.26-1.76-3.29-3.31,1.07-2.92,6.53,3.37,9.02,2.37.72-.29,1.65-1.07,2.15-1.83Z"/>
    <path class="cls-3" d="M94.1,114.76c.31,1.09.6,2.09-.18,3.06l-4.84,2.86c-.27-2.19.69-12.89-3.71-11.49-2.07.66-3.38,2.53-5.3,2.48-.19-2.14,1.28-4.4-.35-6.21.82-1.72,2.6-2.57,4.25-3.36.29,1.06,7.04,11.38,10.12,12.65Z"/>
    <path class="cls-8" d="M93.93,117.82c3.29,6.14,7.95,1.76,7.04,13.72-2.16-2.42-2.39-5.57-5-8.07.06,3.35,2.26,5.25,1.99,7.96-4.58-2.33.01-6.26-6.12-6.62-2.23-.13-2.52-2.3-2.75-4.13l4.84-2.86Z"/>
    <path class="cls-16" d="M96.88,107.8c-1.02,1.52-1.19,4.46.85,4.99,0,.97-.47,1.86-1.47,1.9-.7.03-1.54.32-2.16.07-.77-2.67-2.69-5.01-2.35-7.8,1.76-.12,3.7-.36,5.12.84Z"/>
    <path class="cls-11" d="M99.61,107.64l3.03.52c-.12.77-.38,1.69-.92,1.96-.97.48-1.95-.28-3.09-.12s-.9,2.05-.9,2.8c-2.04-.53-1.87-3.47-.85-4.99.9-.02,1.84-.31,2.73-.16Z"/>
    <path class="cls-16" d="M103.8,107.86c-.38.01-.79.36-1.16.29l-3.03-.52c-.67-1.59,1.09-2.21,2.55-1.74.68.22,1.37.98,1.64,1.96Z"/>
    <path class="cls-1" d="M38.47,79.88c.21-.03.43,0,.65,0l-.88,4.01c-1.15.89-2.58,1.03-3.92,1.43-1.96.59-4.03-.38-5.89.64-2.34-1.19-1.7-3.71-1.91-5.84l4.77-2.71c2.57.59,4.6,2.87,7.17,2.47Z"/>
    <path class="cls-16" d="M38.04,71.89c.97-.02,6.06,4.56,5.9,5.51s-1.14,1.78-1.61,2.64c-1.07-.16-2.14-.19-3.22-.16-.22,0-.44-.03-.65,0,.33-.82-.23-1.74-1.03-2.16-.4-.21-1.09-.14-1.87-.38-1.36-.42-1.27-2.17-.86-3.26.24-.63,1.11-1.26,1.63-1.86l1.71-.33Z"/>
    <circle class="cls-16" cx="31.82" cy="73.57" r=".5"/>
    <path class="cls-10" d="M78.57,99.98c.26.75.75,1.39,1.38,1.87-.25.86-.37,1.56-1.11,2.21-.7.61-.04,1.02.9,1.41,1.63,1.81.16,4.07.35,6.21.21,2.36-.75,5.3,1.44,7.53,1.4,1.43,1.83,3.23,1.77,4.74-1,.75-2.09,1.35-3.25,1.82-.65.01-1.29-.12-1.92-.24.18-3.18-.4-7.47-4.13-8.69-2.79-.91-4.51,11.51-3.84,12.65-1.41.06-3.19,0-3.64-1.73-.28-1.07-1.35-2.66-1.4-3.97s2.05-3.82.45-5.24c-2.1-1.85-1.78-3.95-2.64-5.81.98-1.08,1.13-2.55,1.72-4.53,2.73.8,4.96.36,6.41-1.07,1.99-1.95,2.16-4.29,1.91-7.51,1.82-1.01,3.86.04,5.6.34Z"/>
    <path class="cls-17" d="M89.09,120.68c.23,1.83.52,3.99,2.75,4.13l.02,5.63c-3.7-.59-5.54-4.52-8.55-6.48.06-1.52-.37-3.32-1.77-4.74-2.2-2.24-1.23-5.18-1.44-7.53,1.92.05,3.23-1.82,5.3-2.48,4.4-1.4,3.44,9.3,3.71,11.49Z"/>
    <path class="cls-7" d="M78.12,125.53c-2.04,3.39-5.49,1.51-6.24,4.17-.57,0-1.16-.24-1.73-.22-.68-1.14,1.05-13.56,3.84-12.65,3.73,1.22,4.31,5.51,4.13,8.69Z"/>
    <path class="cls-3" d="M49.2,84.93c-3.5,9.79-7.22,2.61-10.08,11.06-.3.02-.61.16-.91.14-.92-.04-1.83-.18-2.72-.38-.12-1.14-.83-3.08.42-4.09l7.28-5.85.95-.76c1.71-.66,3.5-.09,5.06-.13Z"/>
    <path class="cls-16" d="M43.19,85.82l-7.28,5.85c-1.25,1.01-.54,2.94-.42,4.09-.61.63-1.42,1.26-2.42,1.02-.81-.19-1.34-1.05-1.63-1.87l-.08-2.01c1.06-2.53,3.29-4.76,2.96-7.59,1.34-.4,2.77-.54,3.92-1.43,2.01-.29,3.13,1.63,4.95,1.94Z"/>
    <path class="cls-13" d="M34.32,85.31c.32,2.83-1.9,5.06-2.96,7.59-1.98-1.74-2.96-4.33-2.93-6.95,1.86-1.02,3.93-.05,5.89-.64Z"/>
    <path class="cls-1" d="M90.86,68.1c.28,1.31-.11,2.22-1.49,2.06-1.03-.12-2.61.33-2.48-1.15,1.1-1.07,2.53-.96,3.97-.9Z"/>
    <path class="cls-2" d="M100.98,81.99c3.32.56,7.25.46,9.74,3.02-.3.77-13.81,3.09-13.85,1.07-.54-.89-.99-1.84-1.23-2.86l.18-2.25c1.85.05,3.4.72,5.16,1.02Z"/>
    <path class="cls-6" d="M80.11,78.06c3.9-.48,4.97,2.59,15.71,2.91l-.18,2.25c-4.85-1.55-9.6-2.81-14.71-2.26-1.37-1.09-3.14-1.39-4.85-1.06-.13-.54-.55-1.6-.93-1.99,1.64.13,3.32.35,4.96.15Z"/>
    <path class="cls-7" d="M98.69,68.94c1.46-.02,3.27,2.43,2.32,3.89-3.15-.75-5.66-1.4-8.19-.97.45-2.17,3.77-2.89,5.87-2.92Z"/>
    <path class="cls-1" d="M90.96,71.9l-1.2.21c.47-.14.65-.56,1.2-.21Z"/>
    <path class="cls-10" d="M95.64,83.23c.23,1.02.68,1.97,1.23,2.86-.31-.06-.74.23-1.03.1-.8-.35-1.23.24-.9.99-.26.05-.68.17-.93.09-2.19-.67-1.92.85-2.09,2.23-.2,1.62.69,2.47,1.02,3.62,1.27,4.39,6.43,3.28,10.38,6.06-4.53,1.22-7.95-3.02-12.05-.86-1.32,2.51.39,5.15-.3,7.35-4.08-3.87-2.19-7.79-6.19-7.95l.13-1.75,4.06-1.64c-2.12-.82-3.78-.49-5.16-1.38-.21-.13-.56-.11-.7-.3l.82-5.74c-2.35-1.52-3.65-3.56-2.99-5.94,5.11-.55,9.87.71,14.71,2.26Z"/>
    <path class="cls-12" d="M115.03,92.86c.08.28-.18.64-.16.93-1.85,2.21-5.46,4.15-8.4,2.69l-2.06-3.48c.27-1.25.98-2.35,1.83-3.2,4.06-4.08,4.14,4.19,8.78,3.07Z"/>
    <path class="cls-12" d="M94.01,87.27c-1.42,5.82,5.59-.01,8.78,5.66-3.09,2.75-.8-2.05-9.84.19-.33-1.15-1.23-2-1.02-3.62.17-1.37-.1-2.9,2.09-2.23Z"/>
    <path class="cls-2" d="M94.94,87.18c-.33-.75.11-1.34.9-.99-.12.43-.43.89-.9.99Z"/>
    <path class="cls-1" d="M71.23,91.89l-.42-1.43c-.19-.63-.96-.74-1.31-.51.88-.56-5.35,18.86-5.42,9.82.69.77,5.23-10.63,2.9-11.47-2.16-.79-4.83.48-4.74-2.29,2.48-.46,5.58.16,7.09-3.36-2.63-1.34-5.11-.47-7.42-.69.84-.68,1.39-2.83,2.54-3.27,3.31-1.24,4.67,2.81,6.73,4.17,2.6,1.72,6.76,3.91,5.31,7.63-1.61-.21-4.23-.63-5.27,1.38Z"/>
    <path class="cls-1" d="M81.02,97.53c-.03,1.31.29,2.58.57,4.04-.73.28-1.2.29-1.64.29-.63-.48-1.12-1.12-1.38-1.87.33-1.1.08-2.98,1.47-3.28.49-.01.69.65.97.82Z"/>
    <path class="cls-1" d="M63.24,106.98l-.35-2.15c.82-.02,3.14-.54,3.19.95.06,1.6-2.15,1.09-2.84,1.21Z"/>
    <path class="cls-6" d="M42.34,80.03c.24,1.34,1.53,1.97,2.47,3.25.43.58-.47,1.45-.67,1.78l-.95.76c-1.82-.31-2.94-2.22-4.95-1.94l.88-4.01c1.08-.04,2.16,0,3.22.16Z"/>
    <path class="cls-6" d="M48.41,78.25c.41-.53,1.53-.13,2.2-.2.41-.04.86.75.55,1.47-.36.83-1.12.41-1.52.54-.87.28-2.19-.57-1.23-1.81Z"/>
    <path class="cls-1" d="M80.93,80.97c-.66,2.39.63,4.42,2.99,5.94l-.82,5.74-7.05-9.76c-.12-.97.26-2.04.03-2.99,1.7-.32,3.47-.03,4.85,1.06Z"/>
    <path class="cls-1" d="M84.78,97.73c3.99.16,2.11,4.08,6.19,7.95.33.31.31,1.04.79,1.28-.34,2.79,1.58,5.13,2.35,7.8-3.08-1.27-9.83-11.59-10.12-12.65-.39-1.39-.43-2.89-1.13-4.19.62.09,1.29-.21,1.92-.18Z"/>
    <path class="cls-11" d="M82.85,97.91c.7,1.3.74,2.81,1.13,4.19-1.65.8-3.43,1.65-4.25,3.36-.93-.39-1.59-.8-.9-1.41.74-.65.86-1.35,1.11-2.21.43,0,.91,0,1.64-.29-.27-1.46-.59-2.72-.57-4.04.52.13,1.28.31,1.84.39Z"/>
    <path class="cls-1" d="M84.91,95.98c-.86-.77-1.19-1.9-1.1-3.03,1.39.89,3.05.57,5.16,1.38l-4.06,1.64Z"/>
    <path class="cls-10" d="M62.23,86.01c.03-.95-1.56-2.11-.5-3.24.17-.18-.02-.65.17-.81,2.31.22,4.79-.65,7.42.69-1.51,3.52-4.61,2.9-7.09,3.36Z"/>
  </g>
</svg>